<?xml version="1.0" encoding="utf-8"?>
<!-- Generator: Adobe Illustrator 24.0.2, SVG Export Plug-In . SVG Version: 6.00 Build 0)  -->
<svg version="1.1" id="Layer_1" xmlns="http://www.w3.org/2000/svg" xmlns:xlink="http://www.w3.org/1999/xlink" x="0px" y="0px"
	 viewBox="0 0 64 64" style="enable-background:new 0 0 64 64;" xml:space="preserve">
<style type="text/css">
	.st0{fill:#E5E5E5;}
</style>
<title>Cancel</title>
<desc>A solid styled icon from Orion Icon Library.</desc>
<path class="st0" d="M53.1,48.9L36.2,32l16.9-16.9c1.2-1.2,1.1-3.1-0.1-4.2c-1.2-1.1-3-1.1-4.2,0L32,27.8L15.1,10.9
	c-1.2-1.2-3.1-1.2-4.2,0s-1.2,3.1,0,4.2L27.8,32L10.9,48.9C9.7,50.1,9.8,52,11,53.1c1.2,1.1,3,1.1,4.2,0L32,36.2l16.9,16.9
	c1.2,1.2,3.1,1.2,4.2,0S54.3,50.1,53.1,48.9C53.1,48.9,53.1,48.9,53.1,48.9z"/>
</svg>
